<svg xmlns="http://www.w3.org/2000/svg" viewBox="0 0 742.000000 838.000000" preserveAspectRatio="xMidYMid meet"><g transform="translate(0.000000,838.000000) scale(0.100000,-0.100000)" fill="rgb(227,0,44)" stroke="rgb(227,0,44)" fill-opacity="0.25" stroke-opacity="0.25" stroke-width="0px"><path d="M3558 6283 c83 -2 221 -2 305 0 83 1 15 3 -153 3 -168 0 -236 -2 -152 -3z"></path></g><g transform="translate(0.000000,838.000000) scale(0.100000,-0.100000)" fill="rgb(227,0,43)" stroke="rgb(227,0,43)" fill-opacity="0.75" stroke-opacity="0.75" stroke-width="0px"><path d="M3710 6273 l300 -3 3 -300 2 -300 0 302 0 303 -303 0 -302 0 300 -2z"></path><path d="M4014 4740 c0 -168 2 -236 3 -152 2 83 2 221 0 305 -1 83 -3 15 -3 -153z"></path></g><g transform="translate(0.000000,838.000000) scale(0.100000,-0.100000)" fill="rgb(227,0,43)" stroke="rgb(227,0,43)" fill-opacity="0.56" stroke-opacity="0.56" stroke-width="0px"><path d="M3404 5970 c0 -168 2 -236 3 -152 2 83 2 221 0 305 -1 83 -3 15 -3 -153z"></path><path d="M3404 4740 c0 -168 2 -236 3 -152 2 83 2 221 0 305 -1 83 -3 15 -3 -153z"></path></g><g transform="translate(0.000000,838.000000) scale(0.100000,-0.100000)" fill="rgb(223,0,32)" stroke="rgb(223,0,32)" fill-opacity="0.06" stroke-opacity="0.06" stroke-width="0px"><path d="M3394 5970 c0 -168 2 -236 3 -152 2 83 2 221 0 305 -1 83 -3 15 -3 -153z"></path><path d="M3394 4740 c0 -168 2 -236 3 -152 2 83 2 221 0 305 -1 83 -3 15 -3 -153z"></path></g><g transform="translate(0.000000,838.000000) scale(0.100000,-0.100000)" fill="rgb(227,0,43)" stroke="rgb(227,0,43)" stroke-width="0px"><path d="M3410 5960 l0 -310 -305 0 -305 0 0 -290 0 -290 451 301 c291 194 458 299 469 296 10 -2 216 -138 458 -301 242 -163 443 -296 446 -296 3 0 6 131 6 290 l0 290 -310 0 -310 0 0 310 0 310 -300 0 -300 0 0 -310z"></path><path d="M3410 4740 l0 -300 300 0 300 0 0 300 0 300 -300 0 -300 0 0 -300z"></path></g><g transform="translate(0.000000,838.000000) scale(0.100000,-0.100000)" fill="rgb(223,0,40)" stroke="rgb(223,0,40)" fill-opacity="0.25" stroke-opacity="0.25" stroke-width="0px"><path d="M4024 5970 c0 -168 2 -236 3 -152 2 83 2 221 0 305 -1 83 -3 15 -3 -153z"></path><path d="M4024 4740 c0 -168 2 -236 3 -152 2 83 2 221 0 305 -1 83 -3 15 -3 -153z"></path></g><g transform="translate(0.000000,838.000000) scale(0.100000,-0.100000)" fill="rgb(226,0,43)" stroke="rgb(226,0,43)" fill-opacity="0.38" stroke-opacity="0.38" stroke-width="0px"><path d="M2948 5663 c84 -2 219 -2 300 0 81 1 12 3 -153 3 -165 0 -231 -2 -147 -3z"></path><path d="M4178 5663 c83 -2 221 -2 305 0 83 1 15 3 -153 3 -168 0 -236 -2 -152 -3z"></path></g><g transform="translate(0.000000,838.000000) scale(0.100000,-0.100000)" fill="rgb(228,0,43)" stroke="rgb(228,0,43)" fill-opacity="0.81" stroke-opacity="0.81" stroke-width="0px"><path d="M3558 4433 c83 -2 221 -2 305 0 83 1 15 3 -153 3 -168 0 -236 -2 -152 -3z"></path></g><g transform="translate(0.000000,838.000000) scale(0.100000,-0.100000)" fill="rgb(227,0,43)" stroke="rgb(227,0,43)" fill-opacity="0.94" stroke-opacity="0.94" stroke-width="0px"><path d="M2794 5360 c0 -162 2 -229 3 -147 2 81 2 213 0 295 -1 81 -3 14 -3 -148z"></path></g><g transform="translate(0.000000,838.000000) scale(0.100000,-0.100000)" fill="rgb(226,0,43)" stroke="rgb(226,0,43)" fill-opacity="0.87" stroke-opacity="0.87" stroke-width="0px"><path d="M2948 5653 c84 -2 219 -2 300 0 81 1 12 3 -153 3 -165 0 -231 -2 -147 -3z"></path><path d="M4178 5653 c83 -2 221 -2 305 0 83 1 15 3 -153 3 -168 0 -236 -2 -152 -3z"></path></g><g transform="translate(0.000000,838.000000) scale(0.100000,-0.100000)" fill="rgb(226,0,45)" stroke="rgb(226,0,45)" fill-opacity="0.31" stroke-opacity="0.31" stroke-width="0px"><path d="M3558 4423 c83 -2 221 -2 305 0 83 1 15 3 -153 3 -168 0 -236 -2 -152 -3z"></path></g><g transform="translate(0.000000,838.000000) scale(0.100000,-0.100000)" fill="rgb(225,0,43)" stroke="rgb(225,0,43)" fill-opacity="0.44" stroke-opacity="0.44" stroke-width="0px"><path d="M2784 5355 c0 -165 2 -234 3 -153 2 81 2 216 0 300 -1 84 -3 18 -3 -147z"></path></g><g transform="translate(0.000000,838.000000) scale(0.100000,-0.100000)" fill="rgb(228,0,43)" stroke="rgb(228,0,43)" fill-opacity="0.62" stroke-opacity="0.62" stroke-width="0px"><path d="M4634 5355 c0 -165 2 -234 3 -153 2 81 2 216 0 300 -1 84 -3 18 -3 -147z"></path></g><g transform="translate(0.000000,838.000000) scale(0.100000,-0.100000)" fill="rgb(223,0,40)" stroke="rgb(223,0,40)" fill-opacity="0.13" stroke-opacity="0.13" stroke-width="0px"><path d="M4644 5350 c0 -168 2 -236 3 -152 2 83 2 221 0 305 -1 83 -3 15 -3 -153z"></path></g><g transform="translate(0.000000,838.000000) scale(0.100000,-0.100000)" fill="rgb(225,0,42)" stroke="rgb(225,0,42)" fill-opacity="0.50" stroke-opacity="0.50" stroke-width="0px"><path d="M3558 5043 c83 -2 221 -2 305 0 83 1 15 3 -153 3 -168 0 -236 -2 -152 -3z"></path></g><g transform="translate(0.000000,838.000000) scale(0.100000,-0.100000)" fill="rgb(0,0,0)" stroke="rgb(0,0,0)" fill-opacity="0.02" stroke-opacity="0.02" stroke-width="0px"><path d="M4280 3296 c0 -2 8 -10 18 -17 15 -13 16 -12 3 4 -13 16 -21 21 -21 13z"></path><path d="M2670 2306 c0 -2 8 -10 18 -17 15 -13 16 -12 3 4 -13 16 -21 21 -21 13z"></path><path d="M3039 2283 c-13 -16 -12 -17 4 -4 9 7 17 15 17 17 0 8 -8 3 -21 -13z"></path></g><g transform="translate(0.000000,838.000000) scale(0.100000,-0.100000)" fill="rgb(21,21,21)" stroke="rgb(21,21,21)" fill-opacity="0.05" stroke-opacity="0.05" stroke-width="0px"><path d="M4129 2743 c-13 -16 -12 -17 4 -4 9 7 17 15 17 17 0 8 -8 3 -21 -13z"></path><path d="M4879 2173 c-13 -16 -12 -17 4 -4 9 7 17 15 17 17 0 8 -8 3 -21 -13z"></path></g><g transform="translate(0.000000,838.000000) scale(0.100000,-0.100000)" fill="rgb(21,21,21)" stroke="rgb(21,21,21)" fill-opacity="0.09" stroke-opacity="0.09" stroke-width="0px"><path d="M5268 3183 c7 -3 16 -2 19 1 4 3 -2 6 -13 5 -11 0 -14 -3 -6 -6z"></path></g><g transform="translate(0.000000,838.000000) scale(0.100000,-0.100000)" fill="rgb(16,16,16)" stroke="rgb(16,16,16)" fill-opacity="0.13" stroke-opacity="0.13" stroke-width="0px"><path d="M2193 4123 c9 -2 25 -2 35 0 9 3 1 5 -18 5 -19 0 -27 -2 -17 -5z"></path><path d="M4693 3830 c0 -25 2 -35 4 -22 2 12 2 32 0 45 -2 12 -4 2 -4 -23z"></path><path d="M4518 3053 c7 -3 16 -2 19 1 4 3 -2 6 -13 5 -11 0 -14 -3 -6 -6z"></path><path d="M2858 2213 c6 -2 18 -2 25 0 6 3 1 5 -13 5 -14 0 -19 -2 -12 -5z"></path><path d="M4658 2203 c7 -3 16 -2 19 1 4 3 -2 6 -13 5 -11 0 -14 -3 -6 -6z"></path></g><g transform="translate(0.000000,838.000000) scale(0.100000,-0.100000)" fill="rgb(16,16,16)" stroke="rgb(16,16,16)" fill-opacity="0.06" stroke-opacity="0.06" stroke-width="0px"><path d="M4183 3825 c0 -33 2 -45 4 -27 2 18 2 45 0 60 -2 15 -4 0 -4 -33z"></path><path d="M3052 3540 c0 -14 2 -19 5 -12 2 6 2 18 0 25 -3 6 -5 1 -5 -13z"></path><path d="M5213 3493 c64 -2 170 -2 235 0 64 1 11 3 -118 3 -129 0 -182 -2 -117 -3z"></path><path d="M4518 3333 c6 -2 18 -2 25 0 6 3 1 5 -13 5 -14 0 -19 -2 -12 -5z"></path><path d="M4102 2740 c0 -19 2 -27 5 -17 2 9 2 25 0 35 -3 9 -5 1 -5 -18z"></path><path d="M4351 2444 c0 -11 3 -14 6 -6 3 7 2 16 -1 19 -3 4 -6 -2 -5 -13z"></path><path d="M3733 2390 c0 -25 2 -35 4 -22 2 12 2 32 0 45 -2 12 -4 2 -4 -23z"></path><path d="M3732 2155 c0 -16 2 -22 5 -12 2 9 2 23 0 30 -3 6 -5 -1 -5 -18z"></path></g><g transform="translate(0.000000,838.000000) scale(0.100000,-0.100000)" fill="rgb(20,23,23)" stroke="rgb(20,23,23)" fill-opacity="0.44" stroke-opacity="0.44" stroke-width="0px"><path d="M3814 3545 c0 -181 2 -257 3 -168 2 89 2 237 0 330 -1 92 -3 20 -3 -162z"></path><path d="M3858 3203 c18 -2 45 -2 60 0 15 2 0 4 -33 4 -33 0 -45 -2 -27 -4z"></path><path d="M2582 2560 c0 -14 2 -19 5 -12 2 6 2 18 0 25 -3 6 -5 1 -5 -13z"></path><path d="M4658 2103 c6 -2 18 -2 25 0 6 3 1 5 -13 5 -14 0 -19 -2 -12 -5z"></path></g><g transform="translate(0.000000,838.000000) scale(0.100000,-0.100000)" fill="rgb(21,22,22)" stroke="rgb(21,22,22)" fill-opacity="0.62" stroke-opacity="0.62" stroke-width="0px"><path d="M2193 4113 c9 -2 25 -2 35 0 9 3 1 5 -18 5 -19 0 -27 -2 -17 -5z"></path><path d="M2973 3825 c0 -27 2 -38 4 -22 2 15 2 37 0 50 -2 12 -4 0 -4 -28z"></path><path d="M4703 3825 c0 -27 2 -38 4 -22 2 15 2 37 0 50 -2 12 -4 0 -4 -28z"></path><path d="M3944 3425 c0 -115 2 -161 3 -102 2 59 2 154 0 210 -1 56 -3 8 -3 -108z"></path><path d="M4518 3043 c7 -3 16 -2 19 1 4 3 -2 6 -13 5 -11 0 -14 -3 -6 -6z"></path><path d="M4258 2693 c7 -3 16 -2 19 1 4 3 -2 6 -13 5 -11 0 -14 -3 -6 -6z"></path><path d="M2858 2203 c6 -2 18 -2 25 0 6 3 1 5 -13 5 -14 0 -19 -2 -12 -5z"></path><path d="M4658 2193 c7 -3 16 -2 19 1 4 3 -2 6 -13 5 -11 0 -14 -3 -6 -6z"></path></g><g transform="translate(0.000000,838.000000) scale(0.100000,-0.100000)" fill="rgb(0,0,32)" stroke="rgb(0,0,32)" fill-opacity="0.03" stroke-opacity="0.03" stroke-width="0px"><path d="M3144 3808 l-19 -23 23 19 c21 18 27 26 19 26 -2 0 -12 -10 -23 -22z"></path><path d="M5140 3366 c0 -2 8 -10 18 -17 15 -13 16 -12 3 4 -13 16 -21 21 -21 13z"></path><path d="M4380 3116 c0 -2 8 -10 18 -17 15 -13 16 -12 3 4 -13 16 -21 21 -21 13z"></path></g><g transform="translate(0.000000,838.000000) scale(0.100000,-0.100000)" fill="rgb(20,22,23)" stroke="rgb(20,22,23)" fill-opacity="0.98" stroke-opacity="0.98" stroke-width="0px"><path d="M3579 3283 c-13 -16 -12 -17 4 -4 9 7 17 15 17 17 0 8 -8 3 -21 -13z"></path></g><g transform="translate(0.000000,838.000000) scale(0.100000,-0.100000)" fill="rgb(21,22,23)" stroke="rgb(21,22,23)" stroke-width="0px"><path d="M2112 4095 c-98 -27 -151 -67 -187 -138 -71 -143 5 -264 204 -323 238 -71 268 -88 278 -160 8 -59 -18 -108 -76 -142 -40 -24 -57 -27 -131 -27 -74 0 -91 3 -131 27 -42 25 -79 75 -79 107 0 7 -22 11 -56 11 l-57 0 6 -36 c14 -85 94 -168 187 -194 179 -51 370 9 429 135 44 94 17 208 -63 267 -53 40 -87 53 -204 85 -53 14 -118 36 -143 49 -84 42 -101 127 -39 197 85 97 310 64 345 -50 6 -20 13 -23 61 -23 63 0 64 3 30 76 -54 116 -227 180 -374 139z"></path><path d="M2720 3950 l0 -80 -50 0 -50 0 0 -45 0 -45 49 0 50 0 3 -234 c3 -218 4 -237 24 -263 29 -40 99 -73 155 -73 73 0 78 4 66 55 -10 45 -11 45 -54 45 -30 0 -49 6 -63 20 -19 19 -20 33 -20 235 l0 215 70 0 70 0 0 45 0 45 -70 0 -70 0 0 80 0 80 -55 0 -55 0 0 -80z"></path><path d="M3295 3866 c-140 -44 -217 -155 -218 -316 -1 -136 48 -242 140 -300 166 -105 384 -24 442 165 35 114 23 234 -34 331 -62 105 -208 159 -330 120z m162 -95 c106 -49 144 -234 78 -378 -67 -148 -278 -129 -331 29 -24 75 -17 209 16 273 45 86 144 118 237 76z"></path><path d="M4042 3859 c-27 -14 -51 -36 -65 -60 -12 -21 -26 -37 -32 -36 -5 2 -11 27 -13 55 l-3 52 -50 0 -49 0 0 -325 0 -325 55 0 55 0 0 223 c0 196 2 226 18 257 26 50 92 82 160 78 l52 -3 0 53 0 52 -42 0 c-24 0 -62 -10 -86 -21z"></path><path d="M4430 3871 c-143 -44 -225 -203 -199 -386 22 -157 122 -254 262 -255 74 0 113 17 159 68 21 23 42 42 48 42 6 0 10 -37 10 -92 0 -151 -38 -199 -161 -206 -81 -5 -148 15 -178 54 -10 13 -24 24 -30 24 -15 0 -81 -32 -81 -40 0 -16 80 -81 122 -100 93 -41 225 -36 319 11 48 24 95 79 108 126 7 23 11 177 11 396 l0 357 -55 0 -55 0 0 -55 c0 -67 -14 -71 -53 -16 -46 67 -143 97 -227 72z m195 -111 c19 -12 43 -41 57 -68 19 -40 23 -63 23 -147 0 -91 -3 -104 -27 -146 -33 -57 -76 -79 -153 -79 -121 0 -185 77 -185 226 0 118 49 210 126 234 43 14 120 4 159 -20z"></path><path d="M5177 3866 c-133 -48 -208 -164 -209 -322 0 -179 89 -303 240 -335 127 -26 269 29 319 124 8 16 13 30 11 32 -2 2 -24 6 -49 10 -44 6 -48 5 -68 -23 -47 -67 -181 -81 -261 -28 -44 29 -80 96 -80 149 l0 37 240 0 240 0 0 23 c0 54 -23 153 -45 197 -60 119 -213 180 -338 136z m190 -102 c15 -11 35 -32 46 -45 20 -28 41 -105 32 -120 -4 -5 -85 -9 -186 -9 l-179 0 0 30 c0 35 29 97 57 122 56 51 176 62 230 22z"></path><path d="M2753 2982 c-187 -67 -289 -268 -255 -504 22 -153 94 -263 210 -320 61 -30 74 -33 162 -33 82 0 103 4 151 26 87 41 157 120 183 207 7 20 4 22 -36 22 -41 0 -45 -2 -57 -36 -19 -53 -65 -99 -123 -124 -74 -32 -194 -26 -260 13 -118 69 -174 220 -148 403 25 180 131 284 291 284 111 0 196 -49 236 -136 24 -52 26 -54 64 -54 46 0 47 6 15 77 -32 67 -94 129 -165 161 -75 35 -193 41 -268 14z"></path><path d="M3527 2770 c-60 -15 -113 -47 -146 -87 l-32 -38 37 -16 37 -17 26 30 c71 85 244 89 286 7 19 -35 19 -113 1 -128 -7 -6 -49 -16 -92 -21 -186 -24 -250 -47 -291 -109 -47 -70 -20 -186 55 -236 98 -64 242 -48 304 35 12 17 25 30 30 30 4 0 8 -20 8 -45 l0 -45 46 0 46 0 -4 248 c-3 229 -5 250 -25 287 -11 22 -29 48 -40 57 -48 43 -169 67 -246 48z m223 -389 c0 -64 -4 -84 -22 -111 -44 -64 -69 -75 -170 -75 -89 0 -90 0 -119 33 -20 22 -29 43 -29 67 0 77 37 108 151 126 41 7 97 17 124 24 28 7 53 13 58 14 4 0 7 -34 7 -78z"></path><path d="M4204 2766 c-16 -7 -46 -32 -66 -55 -19 -22 -38 -41 -41 -41 -4 0 -7 23 -7 50 l0 50 -40 0 -40 0 0 -320 0 -320 39 0 40 0 3 234 c3 220 4 236 24 263 38 51 81 73 145 73 l59 0 0 40 0 40 -42 0 c-24 -1 -57 -7 -74 -14z"></path><path d="M4577 2766 c-145 -54 -228 -216 -197 -387 21 -115 80 -197 170 -238 66 -30 178 -29 245 3 46 21 125 94 125 115 0 5 -17 13 -37 18 -35 8 -39 7 -58 -21 -57 -83 -220 -90 -304 -13 -32 30 -61 94 -61 140 l0 37 241 0 241 0 -7 68 c-14 131 -62 215 -148 258 -63 32 -154 41 -210 20z m195 -91 c45 -30 77 -91 78 -147 l0 -38 -195 0 -195 0 0 32 c0 70 65 155 137 178 48 16 131 4 175 -25z"></path><path d="M5182 2625 c0 -16 2 -22 5 -12 2 9 2 23 0 30 -3 6 -5 -1 -5 -18z"></path><path d="M5011 2624 c0 -11 3 -14 6 -6 3 7 2 16 -1 19 -3 4 -6 -2 -5 -13z"></path></g><g transform="translate(0.000000,838.000000) scale(0.100000,-0.100000)" fill="rgb(21,22,22)" stroke="rgb(21,22,22)" fill-opacity="0.72" stroke-opacity="0.72" stroke-width="0px"><path d="M3040 2856 c0 -2 8 -10 18 -17 15 -13 16 -12 3 4 -13 16 -21 21 -21 13z"></path><path d="M2669 2833 c-13 -16 -12 -17 4 -4 16 13 21 21 13 21 -2 0 -10 -8 -17 -17z"></path><path d="M4519 2643 c-13 -16 -12 -17 4 -4 9 7 17 15 17 17 0 8 -8 3 -21 -13z"></path></g><g transform="translate(0.000000,838.000000) scale(0.100000,-0.100000)" fill="rgb(21,21,21)" stroke="rgb(21,21,21)" fill-opacity="0.19" stroke-opacity="0.19" stroke-width="0px"><path d="M4488 3893 c6 -2 18 -2 25 0 6 3 1 5 -13 5 -14 0 -19 -2 -12 -5z"></path><path d="M5248 3893 c6 -2 18 -2 25 0 6 3 1 5 -13 5 -14 0 -19 -2 -12 -5z"></path><path d="M4692 3545 c0 -16 2 -22 5 -12 2 9 2 23 0 30 -3 6 -5 -1 -5 -18z"></path><path d="M4648 2793 c7 -3 16 -2 19 1 4 3 -2 6 -13 5 -11 0 -14 -3 -6 -6z"></path><path d="M5088 2673 c7 -3 16 -2 19 1 4 3 -2 6 -13 5 -11 0 -14 -3 -6 -6z"></path><path d="M2472 2555 c0 -16 2 -22 5 -12 2 9 2 23 0 30 -3 6 -5 -1 -5 -18z"></path></g><g transform="translate(0.000000,838.000000) scale(0.100000,-0.100000)" fill="rgb(21,22,23)" stroke="rgb(21,22,23)" fill-opacity="0.91" stroke-opacity="0.91" stroke-width="0px"><path d="M3150 3296 c0 -2 8 -10 18 -17 15 -13 16 -12 3 4 -13 16 -21 21 -21 13z"></path></g><g transform="translate(0.000000,838.000000) scale(0.100000,-0.100000)" fill="rgb(21,22,23)" stroke="rgb(21,22,23)" fill-opacity="0.95" stroke-opacity="0.95" stroke-width="0px"><path d="M5129 3733 c-13 -16 -12 -17 4 -4 16 13 21 21 13 21 -2 0 -10 -8 -17 -17z"></path></g><g transform="translate(0.000000,838.000000) scale(0.100000,-0.100000)" fill="rgb(22,22,22)" stroke="rgb(22,22,22)" fill-opacity="0.31" stroke-opacity="0.31" stroke-width="0px"><path d="M2603 3825 c0 -27 2 -38 4 -22 2 15 2 37 0 50 -2 12 -4 0 -4 -28z"></path><path d="M3691 3544 c0 -11 3 -14 6 -6 3 7 2 16 -1 19 -3 4 -6 -2 -5 -13z"></path><path d="M2198 3313 c7 -3 16 -2 19 1 4 3 -2 6 -13 5 -11 0 -14 -3 -6 -6z"></path><path d="M5268 3303 c6 -2 18 -2 25 0 6 3 1 5 -13 5 -14 0 -19 -2 -12 -5z"></path><path d="M2858 3013 c6 -2 18 -2 25 0 6 3 1 5 -13 5 -14 0 -19 -2 -12 -5z"></path><path d="M3994 2450 c0 -179 2 -252 3 -162 2 89 2 235 0 325 -1 89 -3 16 -3 -163z"></path></g><g transform="translate(0.000000,838.000000) scale(0.100000,-0.100000)" fill="rgb(16,16,24)" stroke="rgb(16,16,24)" fill-opacity="0.13" stroke-opacity="0.13" stroke-width="0px"><path d="M2983 3825 c0 -27 2 -38 4 -22 2 15 2 37 0 50 -2 12 -4 0 -4 -28z"></path><path d="M3954 3420 c0 -118 2 -167 3 -107 2 59 2 155 0 215 -1 59 -3 10 -3 -108z"></path><path d="M4258 2683 c7 -3 16 -2 19 1 4 3 -2 6 -13 5 -11 0 -14 -3 -6 -6z"></path></g><g transform="translate(0.000000,838.000000) scale(0.100000,-0.100000)" fill="rgb(21,21,23)" stroke="rgb(21,21,23)" fill-opacity="0.75" stroke-opacity="0.75" stroke-width="0px"><path d="M2198 4003 c6 -2 18 -2 25 0 6 3 1 5 -13 5 -14 0 -19 -2 -12 -5z"></path><path d="M2485 3880 l-30 -8 27 -1 c15 0 30 4 33 9 3 6 5 9 3 9 -2 -1 -16 -5 -33 -9z"></path><path d="M2638 3873 c12 -2 32 -2 45 0 12 2 2 4 -23 4 -25 0 -35 -2 -22 -4z"></path><path d="M2878 3873 c17 -2 47 -2 65 0 17 2 3 4 -33 4 -36 0 -50 -2 -32 -4z"></path><path d="M3853 3873 c15 -2 39 -2 55 0 15 2 2 4 -28 4 -30 0 -43 -2 -27 -4z"></path><path d="M4765 3873 l55 -4 3 -349 2 -350 0 352 0 353 -58 1 -57 1 55 -4z"></path><path d="M5258 3783 c7 -3 16 -2 19 1 4 3 -2 6 -13 5 -11 0 -14 -3 -6 -6z"></path><path d="M4703 3250 c0 -41 2 -58 4 -37 2 20 2 54 0 75 -2 20 -4 3 -4 -38z"></path><path d="M4273 2783 c9 -2 25 -2 35 0 9 3 1 5 -18 5 -19 0 -27 -2 -17 -5z"></path><path d="M4028 2773 c12 -2 32 -2 45 0 12 2 2 4 -23 4 -25 0 -35 -2 -22 -4z"></path><path d="M4092 2338 l-2 -207 -42 -4 -43 -4 43 -1 c27 -1 44 3 48 11 2 7 3 102 1 212 l-2 200 -3 -207z"></path><path d="M3773 2123 c15 -2 37 -2 50 0 12 2 0 4 -28 4 -27 0 -38 -2 -22 -4z"></path></g><g transform="translate(0.000000,838.000000) scale(0.100000,-0.100000)" fill="rgb(21,22,23)" stroke="rgb(21,22,23)" fill-opacity="0.97" stroke-opacity="0.97" stroke-width="0px"><path d="M3159 3793 c-13 -16 -12 -17 4 -4 16 13 21 21 13 21 -2 0 -10 -8 -17 -17z"></path><path d="M5120 3356 c0 -2 8 -10 18 -17 15 -13 16 -12 3 4 -13 16 -21 21 -21 13z"></path><path d="M5489 3283 c-13 -16 -12 -17 4 -4 16 13 21 21 13 21 -2 0 -10 -8 -17 -17z"></path><path d="M3055 2850 c10 -11 20 -20 23 -20 3 0 -3 9 -13 20 -10 11 -20 20 -23 20 -3 0 3 -9 13 -20z"></path><path d="M2664 2838 l-19 -23 23 19 c21 18 27 26 19 26 -2 0 -12 -10 -23 -22z"></path><path d="M5029 2673 c-13 -16 -12 -17 4 -4 9 7 17 15 17 17 0 8 -8 3 -21 -13z"></path><path d="M4514 2648 l-19 -23 23 19 c12 11 22 21 22 23 0 8 -8 2 -26 -19z"></path><path d="M4780 2666 c0 -2 8 -10 18 -17 15 -13 16 -12 3 4 -13 16 -21 21 -21 13z"></path><path d="M4450 2206 c0 -2 8 -10 18 -17 15 -13 16 -12 3 4 -13 16 -21 21 -21 13z"></path></g><g transform="translate(0.000000,838.000000) scale(0.100000,-0.100000)" fill="rgb(21,22,23)" stroke="rgb(21,22,23)" fill-opacity="0.81" stroke-opacity="0.81" stroke-width="0px"><path d="M3681 3544 c0 -11 3 -14 6 -6 3 7 2 16 -1 19 -3 4 -6 -2 -5 -13z"></path></g><g transform="translate(0.000000,838.000000) scale(0.100000,-0.100000)" fill="rgb(21,21,22)" stroke="rgb(21,21,22)" fill-opacity="0.94" stroke-opacity="0.94" stroke-width="0px"><path d="M3825 3545 l0 -330 60 -1 60 -1 -57 4 -58 4 -3 327 -2 327 0 -330z"></path><path d="M3368 3293 c6 -2 18 -2 25 0 6 3 1 5 -13 5 -14 0 -19 -2 -12 -5z"></path><path d="M2572 2560 c0 -14 2 -19 5 -12 2 6 2 18 0 25 -3 6 -5 1 -5 -13z"></path><path d="M4563 2493 c54 -2 139 -2 190 0 51 1 7 3 -98 3 -104 0 -146 -2 -92 -3z"></path><path d="M3148 2383 c12 -2 32 -2 45 0 12 2 2 4 -23 4 -25 0 -35 -2 -22 -4z"></path><path d="M4658 2113 c6 -2 18 -2 25 0 6 3 1 5 -13 5 -14 0 -19 -2 -12 -5z"></path></g><g transform="translate(0.000000,838.000000) scale(0.100000,-0.100000)" fill="rgb(21,21,21)" stroke="rgb(21,21,21)" fill-opacity="0.38" stroke-opacity="0.38" stroke-width="0px"><path d="M2748 4043 c18 -2 45 -2 60 0 15 2 0 4 -33 4 -33 0 -45 -2 -27 -4z"></path><path d="M2703 3960 c0 -41 2 -58 4 -37 2 20 2 54 0 75 -2 20 -4 3 -4 -38z"></path><path d="M3943 3830 c0 -25 2 -35 4 -22 2 12 2 32 0 45 -2 12 -4 2 -4 -23z"></path><path d="M2704 3570 c0 -113 2 -159 3 -102 2 56 2 148 0 205 -1 56 -3 10 -3 -103z"></path><path d="M5183 3603 c48 -2 125 -2 170 0 45 1 6 3 -88 3 -93 0 -130 -2 -82 -3z"></path><path d="M2531 3454 c0 -11 3 -14 6 -6 3 7 2 16 -1 19 -3 4 -6 -2 -5 -13z"></path><path d="M4658 2693 c7 -3 16 -2 19 1 4 3 -2 6 -13 5 -11 0 -14 -3 -6 -6z"></path><path d="M5063 2625 c0 -22 2 -30 4 -17 2 12 2 30 0 40 -3 9 -5 -1 -4 -23z"></path><path d="M3311 2304 c0 -11 3 -14 6 -6 3 7 2 16 -1 19 -3 4 -6 -2 -5 -13z"></path><path d="M2858 2103 c7 -3 16 -2 19 1 4 3 -2 6 -13 5 -11 0 -14 -3 -6 -6z"></path></g><g transform="translate(0.000000,838.000000) scale(0.100000,-0.100000)" fill="rgb(24,24,24)" stroke="rgb(24,24,24)" fill-opacity="0.13" stroke-opacity="0.13" stroke-width="0px"><path d="M2440 4046 c0 -2 8 -10 18 -17 15 -13 16 -12 3 4 -13 16 -21 21 -21 13z"></path><path d="M2460 3626 c0 -2 8 -10 18 -17 15 -13 16 -12 3 4 -13 16 -21 21 -21 13z"></path><path d="M3250 3366 c0 -2 8 -10 18 -17 15 -13 16 -12 3 4 -13 16 -21 21 -21 13z"></path><path d="M3120 2926 c0 -2 8 -10 18 -17 15 -13 16 -12 3 4 -13 16 -21 21 -21 13z"></path><path d="M4850 2726 c0 -2 8 -10 18 -17 15 -13 16 -12 3 4 -13 16 -21 21 -21 13z"></path></g><g transform="translate(0.000000,838.000000) scale(0.100000,-0.100000)" fill="rgb(19,19,19)" stroke="rgb(19,19,19)" fill-opacity="0.16" stroke-opacity="0.16" stroke-width="0px"><path d="M3140 3286 c0 -2 8 -10 18 -17 15 -13 16 -12 3 4 -13 16 -21 21 -21 13z"></path></g><g transform="translate(0.000000,838.000000) scale(0.100000,-0.100000)" fill="rgb(22,22,23)" stroke="rgb(22,22,23)" fill-opacity="0.87" stroke-opacity="0.87" stroke-width="0px"><path d="M2430 4036 c0 -2 8 -10 18 -17 15 -13 16 -12 3 4 -13 16 -21 21 -21 13z"></path><path d="M2714 4026 c-3 -7 -3 -42 -1 -77 l3 -64 2 72 2 72 58 4 57 3 -58 2 c-41 1 -59 -2 -63 -12z"></path><path d="M2714 3570 c0 -113 2 -159 3 -102 2 56 2 148 0 205 -1 56 -3 10 -3 -103z"></path><path d="M2450 3616 c0 -2 8 -10 18 -17 15 -13 16 -12 3 4 -13 16 -21 21 -21 13z"></path><path d="M5173 3593 c48 -2 126 -2 175 0 48 1 8 3 -88 3 -96 0 -136 -2 -87 -3z"></path><path d="M3240 3356 c0 -2 8 -10 18 -17 15 -13 16 -12 3 4 -13 16 -21 21 -21 13z"></path><path d="M3110 2916 c0 -2 8 -10 18 -17 15 -13 16 -12 3 4 -13 16 -21 21 -21 13z"></path><path d="M4840 2716 c0 -2 8 -10 18 -17 15 -13 16 -12 3 4 -13 16 -21 21 -21 13z"></path><path d="M5073 2625 c0 -22 2 -30 4 -17 2 12 2 30 0 40 -3 9 -5 -1 -4 -23z"></path><path d="M3321 2304 c0 -11 3 -14 6 -6 3 7 2 16 -1 19 -3 4 -6 -2 -5 -13z"></path></g><g transform="translate(0.000000,838.000000) scale(0.100000,-0.100000)" fill="rgb(20,22,23)" stroke="rgb(20,22,23)" fill-opacity="0.69" stroke-opacity="0.69" stroke-width="0px"><path d="M2833 3960 c0 -41 2 -58 4 -37 2 20 2 54 0 75 -2 20 -4 3 -4 -38z"></path><path d="M4488 3883 c6 -2 18 -2 25 0 6 3 1 5 -13 5 -14 0 -19 -2 -12 -5z"></path><path d="M5248 3883 c6 -2 18 -2 25 0 6 3 1 5 -13 5 -14 0 -19 -2 -12 -5z"></path><path d="M2834 3580 c0 -107 2 -151 3 -97 2 53 2 141 0 195 -1 53 -3 9 -3 -98z"></path><path d="M4702 3545 c0 -16 2 -22 5 -12 2 9 2 23 0 30 -3 6 -5 -1 -5 -18z"></path><path d="M2193 3193 c9 -2 23 -2 30 0 6 3 -1 5 -18 5 -16 0 -22 -2 -12 -5z"></path><path d="M4518 2943 c6 -2 18 -2 25 0 6 3 1 5 -13 5 -14 0 -19 -2 -12 -5z"></path><path d="M4648 2783 c7 -3 16 -2 19 1 4 3 -2 6 -13 5 -11 0 -14 -3 -6 -6z"></path><path d="M4323 2740 c0 -25 2 -35 4 -22 2 12 2 32 0 45 -2 12 -4 2 -4 -23z"></path><path d="M5088 2663 c7 -3 16 -2 19 1 4 3 -2 6 -13 5 -11 0 -14 -3 -6 -6z"></path><path d="M2482 2555 c0 -16 2 -22 5 -12 2 9 2 23 0 30 -3 6 -5 -1 -5 -18z"></path></g><g transform="translate(0.000000,838.000000) scale(0.100000,-0.100000)" fill="rgb(16,21,21)" stroke="rgb(16,21,21)" fill-opacity="0.19" stroke-opacity="0.19" stroke-width="0px"><path d="M2843 3960 c0 -41 2 -58 4 -37 2 20 2 54 0 75 -2 20 -4 3 -4 -38z"></path><path d="M2844 3580 c0 -107 2 -151 3 -97 2 53 2 141 0 195 -1 53 -3 9 -3 -98z"></path><path d="M4333 2740 c0 -25 2 -35 4 -22 2 12 2 32 0 45 -2 12 -4 2 -4 -23z"></path></g><g transform="translate(0.000000,838.000000) scale(0.100000,-0.100000)" fill="rgb(19,22,22)" stroke="rgb(19,22,22)" fill-opacity="0.31" stroke-opacity="0.31" stroke-width="0px"><path d="M2413 3863 c9 -2 23 -2 30 0 6 3 -1 5 -18 5 -16 0 -22 -2 -12 -5z"></path><path d="M3598 2693 c7 -3 16 -2 19 1 4 3 -2 6 -13 5 -11 0 -14 -3 -6 -6z"></path></g><g transform="translate(0.000000,838.000000) scale(0.100000,-0.100000)" fill="rgb(20,24,24)" stroke="rgb(20,24,24)" fill-opacity="0.25" stroke-opacity="0.25" stroke-width="0px"><path d="M2198 3993 c6 -2 18 -2 25 0 6 3 1 5 -13 5 -14 0 -19 -2 -12 -5z"></path><path d="M2638 3883 c12 -2 32 -2 45 0 12 2 2 4 -23 4 -25 0 -35 -2 -22 -4z"></path><path d="M2878 3883 c17 -2 47 -2 65 0 17 2 3 4 -33 4 -36 0 -50 -2 -32 -4z"></path><path d="M3853 3883 c15 -2 39 -2 55 0 15 2 2 4 -28 4 -30 0 -43 -2 -27 -4z"></path><path d="M4738 3883 c18 -2 45 -2 60 0 15 2 0 4 -33 4 -33 0 -45 -2 -27 -4z"></path><path d="M2473 3863 c9 -2 23 -2 30 0 6 3 -1 5 -18 5 -16 0 -22 -2 -12 -5z"></path><path d="M4835 3520 c0 -195 1 -275 2 -178 2 98 2 258 0 355 -1 98 -2 18 -2 -177z"></path><path d="M5258 3773 c7 -3 16 -2 19 1 4 3 -2 6 -13 5 -11 0 -14 -3 -6 -6z"></path><path d="M4693 3245 c0 -38 2 -53 4 -32 2 20 2 52 0 70 -2 17 -4 1 -4 -38z"></path><path d="M4273 2793 c9 -2 25 -2 35 0 9 3 1 5 -18 5 -19 0 -27 -2 -17 -5z"></path><path d="M4028 2783 c12 -2 32 -2 45 0 12 2 2 4 -23 4 -25 0 -35 -2 -22 -4z"></path><path d="M4104 2335 c0 -115 2 -161 3 -102 2 59 2 154 0 210 -1 56 -3 8 -3 -108z"></path><path d="M3773 2113 c15 -2 37 -2 50 0 12 2 0 4 -28 4 -27 0 -38 -2 -22 -4z"></path><path d="M4028 2113 c12 -2 32 -2 45 0 12 2 2 4 -23 4 -25 0 -35 -2 -22 -4z"></path></g><g transform="translate(0.000000,838.000000) scale(0.100000,-0.100000)" fill="rgb(21,21,23)" stroke="rgb(21,21,23)" fill-opacity="0.56" stroke-opacity="0.56" stroke-width="0px"><path d="M3062 3540 c0 -14 2 -19 5 -12 2 6 2 18 0 25 -3 6 -5 1 -5 -13z"></path><path d="M5213 3503 c64 -2 170 -2 235 0 64 1 11 3 -118 3 -129 0 -182 -2 -117 -3z"></path><path d="M4361 2444 c0 -11 3 -14 6 -6 3 7 2 16 -1 19 -3 4 -6 -2 -5 -13z"></path><path d="M3743 2395 c0 -27 2 -38 4 -22 2 15 2 37 0 50 -2 12 -4 0 -4 -28z"></path><path d="M3743 2165 c0 -22 2 -30 4 -17 2 12 2 30 0 40 -3 9 -5 -1 -4 -23z"></path></g><g transform="translate(0.000000,838.000000) scale(0.100000,-0.100000)" fill="rgb(21,22,23)" stroke="rgb(21,22,23)" fill-opacity="0.87" stroke-opacity="0.87" stroke-width="0px"><path d="M3933 3825 c0 -27 2 -38 4 -22 2 15 2 37 0 50 -2 12 -4 0 -4 -28z"></path><path d="M2521 3454 c0 -11 3 -14 6 -6 3 7 2 16 -1 19 -3 4 -6 -2 -5 -13z"></path><path d="M1930 3296 c0 -2 8 -10 18 -17 15 -13 16 -12 3 4 -13 16 -21 21 -21 13z"></path><path d="M2449 3283 c-13 -16 -12 -17 4 -4 9 7 17 15 17 17 0 8 -8 3 -21 -13z"></path><path d="M4658 2703 c7 -3 16 -2 19 1 4 3 -2 6 -13 5 -11 0 -14 -3 -6 -6z"></path><path d="M2605 2220 c10 -11 20 -20 23 -20 3 0 -3 9 -13 20 -10 11 -20 20 -23 20 -3 0 3 -9 13 -20z"></path><path d="M3119 2213 c-13 -16 -12 -17 4 -4 16 13 21 21 13 21 -2 0 -10 -8 -17 -17z"></path><path d="M3360 2186 c0 -2 8 -10 18 -17 15 -13 16 -12 3 4 -13 16 -21 21 -21 13z"></path><path d="M2858 2113 c7 -3 16 -2 19 1 4 3 -2 6 -13 5 -11 0 -14 -3 -6 -6z"></path></g><g transform="translate(0.000000,838.000000) scale(0.100000,-0.100000)" fill="rgb(32,32,32)" stroke="rgb(32,32,32)" fill-opacity="0.03" stroke-opacity="0.03" stroke-width="0px"><path d="M5499 3263 c-13 -16 -12 -17 4 -4 9 7 17 15 17 17 0 8 -8 3 -21 -13z"></path><path d="M2684 2828 l-19 -23 23 19 c12 11 22 21 22 23 0 8 -8 2 -26 -19z"></path><path d="M3045 2830 c10 -11 20 -20 23 -20 3 0 -3 9 -13 20 -10 11 -20 20 -23 20 -3 0 3 -9 13 -20z"></path><path d="M4760 2656 c0 -2 8 -10 18 -17 15 -13 16 -12 3 4 -13 16 -21 21 -21 13z"></path><path d="M4529 2633 c-13 -16 -12 -17 4 -4 16 13 21 21 13 21 -2 0 -10 -8 -17 -17z"></path></g><g transform="translate(0.000000,838.000000) scale(0.100000,-0.100000)" fill="rgb(20,22,23)" stroke="rgb(20,22,23)" fill-opacity="0.60" stroke-opacity="0.60" stroke-width="0px"><path d="M5268 3193 c7 -3 16 -2 19 1 4 3 -2 6 -13 5 -11 0 -14 -3 -6 -6z"></path></g><g transform="translate(0.000000,838.000000) scale(0.100000,-0.100000)" fill="rgb(16,24,24)" stroke="rgb(16,24,24)" fill-opacity="0.13" stroke-opacity="0.13" stroke-width="0px"><path d="M1920 3286 c0 -2 8 -10 18 -17 15 -13 16 -12 3 4 -13 16 -21 21 -21 13z"></path><path d="M2459 3273 c-13 -16 -12 -17 4 -4 9 7 17 15 17 17 0 8 -8 3 -21 -13z"></path><path d="M2595 2210 c10 -11 20 -20 23 -20 3 0 -3 9 -13 20 -10 11 -20 20 -23 20 -3 0 3 -9 13 -20z"></path><path d="M3129 2203 c-13 -16 -12 -17 4 -4 9 7 17 15 17 17 0 8 -8 3 -21 -13z"></path><path d="M3350 2176 c0 -2 8 -10 18 -17 15 -13 16 -12 3 4 -13 16 -21 21 -21 13z"></path></g><g transform="translate(0.000000,838.000000) scale(0.100000,-0.100000)" fill="rgb(20,22,24)" stroke="rgb(20,22,24)" fill-opacity="0.50" stroke-opacity="0.50" stroke-width="0px"><path d="M2638 3773 c12 -2 32 -2 45 0 12 2 2 4 -23 4 -25 0 -35 -2 -22 -4z"></path><path d="M2878 3773 c17 -2 47 -2 65 0 17 2 3 4 -33 4 -36 0 -50 -2 -32 -4z"></path><path d="M4212 3550 c0 -14 2 -19 5 -12 2 6 2 18 0 25 -3 6 -5 1 -5 -13z"></path><path d="M1898 3453 c17 -2 47 -2 65 0 17 2 3 4 -33 4 -36 0 -50 -2 -32 -4z"></path><path d="M3148 2723 c12 -2 32 -2 45 0 12 2 2 4 -23 4 -25 0 -35 -2 -22 -4z"></path><path d="M3844 2355 c0 -126 2 -177 3 -112 2 65 2 168 0 230 -1 62 -3 9 -3 -118z"></path><path d="M4941 2458 l-1 -38 -232 -3 -233 -2 233 -3 c253 -2 248 -3 239 55 -3 24 -4 22 -6 -9z"></path><path d="M2590 2226 c0 -2 8 -10 18 -17 15 -13 16 -12 3 4 -13 16 -21 21 -21 13z"></path></g><g transform="translate(0.000000,838.000000) scale(0.100000,-0.100000)" fill="rgb(20,21,23)" stroke="rgb(20,21,23)" fill-opacity="0.81" stroke-opacity="0.81" stroke-width="0px"><path d="M2413 3873 c9 -2 23 -2 30 0 6 3 -1 5 -18 5 -16 0 -22 -2 -12 -5z"></path><path d="M3598 2703 c7 -3 16 -2 19 1 4 3 -2 6 -13 5 -11 0 -14 -3 -6 -6z"></path></g><g transform="translate(0.000000,838.000000) scale(0.100000,-0.100000)" fill="rgb(21,21,21)" stroke="rgb(21,21,21)" fill-opacity="0.56" stroke-opacity="0.56" stroke-width="0px"><path d="M4518 3323 c6 -2 18 -2 25 0 6 3 1 5 -13 5 -14 0 -19 -2 -12 -5z"></path></g><g transform="translate(0.000000,838.000000) scale(0.100000,-0.100000)" fill="rgb(21,21,25)" stroke="rgb(21,21,25)" fill-opacity="0.28" stroke-opacity="0.28" stroke-width="0px"><path d="M3149 3803 c-13 -16 -12 -17 4 -4 16 13 21 21 13 21 -2 0 -10 -8 -17 -17z"></path><path d="M2679 2833 c-13 -16 -12 -17 4 -4 16 13 21 21 13 21 -2 0 -10 -8 -17 -17z"></path><path d="M3040 2846 c0 -2 8 -10 18 -17 15 -13 16 -12 3 4 -13 16 -21 21 -21 13z"></path></g><g transform="translate(0.000000,838.000000) scale(0.100000,-0.100000)" fill="rgb(21,21,23)" stroke="rgb(21,21,23)" fill-opacity="0.56" stroke-opacity="0.56" stroke-width="0px"><path d="M4173 3825 c0 -33 2 -45 4 -27 2 18 2 45 0 60 -2 15 -4 0 -4 -33z"></path><path d="M4093 2730 c0 -25 2 -35 4 -22 2 12 2 32 0 45 -2 12 -4 2 -4 -23z"></path></g><g transform="translate(0.000000,838.000000) scale(0.100000,-0.100000)" fill="rgb(21,22,23)" stroke="rgb(21,22,23)" fill-opacity="0.82" stroke-opacity="0.82" stroke-width="0px"><path d="M2613 3825 c0 -27 2 -38 4 -22 2 15 2 37 0 50 -2 12 -4 0 -4 -28z"></path><path d="M4004 2450 c0 -179 2 -252 3 -162 2 89 2 235 0 325 -1 89 -3 16 -3 -163z"></path></g><g transform="translate(0.000000,838.000000) scale(0.100000,-0.100000)" fill="rgb(22,22,24)" stroke="rgb(22,22,24)" fill-opacity="0.50" stroke-opacity="0.50" stroke-width="0px"><path d="M5563 3545 c0 -22 2 -30 4 -17 2 12 2 30 0 40 -3 9 -5 -1 -4 -23z"></path></g><g transform="translate(0.000000,838.000000) scale(0.100000,-0.100000)" fill="rgb(21,21,23)" stroke="rgb(21,21,23)" fill-opacity="0.81" stroke-opacity="0.81" stroke-width="0px"><path d="M2198 3303 c7 -3 16 -2 19 1 4 3 -2 6 -13 5 -11 0 -14 -3 -6 -6z"></path><path d="M5268 3293 c6 -2 18 -2 25 0 6 3 1 5 -13 5 -14 0 -19 -2 -12 -5z"></path><path d="M2858 3003 c6 -2 18 -2 25 0 6 3 1 5 -13 5 -14 0 -19 -2 -12 -5z"></path></g><g transform="translate(0.000000,838.000000) scale(0.100000,-0.100000)" fill="rgb(23,23,23)" stroke="rgb(23,23,23)" fill-opacity="0.44" stroke-opacity="0.44" stroke-width="0px"><path d="M3368 3303 c6 -2 18 -2 25 0 6 3 1 5 -13 5 -14 0 -19 -2 -12 -5z"></path><path d="M4562 2503 c48 -2 129 -2 180 0 51 1 12 3 -87 3 -99 0 -141 -2 -93 -3z"></path><path d="M3148 2393 c12 -2 32 -2 45 0 12 2 2 4 -23 4 -25 0 -35 -2 -22 -4z"></path></g><g transform="translate(0.000000,838.000000) scale(0.100000,-0.100000)" fill="rgb(21,21,27)" stroke="rgb(21,21,27)" fill-opacity="0.19" stroke-opacity="0.19" stroke-width="0px"><path d="M2193 3183 c9 -2 23 -2 30 0 6 3 -1 5 -18 5 -16 0 -22 -2 -12 -5z"></path><path d="M4518 2933 c6 -2 18 -2 25 0 6 3 1 5 -13 5 -14 0 -19 -2 -12 -5z"></path></g></svg>